# File created by Blade
# Date/Time:  Tue Apr 07 20:18:06 2015
#---------------------------------------------------------
:version 1.10
:name HOM
:units
  mass 1.0
  length 1.000000
  angle deg
:documentation
     Acclaim Skeleton File
:root
   axis xyz
   order TX TY TZ RX RY RZ
   position 0.000000 0.000000 0.000000
   orientation 0 0 0
:bonedata
   begin
      id 1
      name Spine_dum
      direction 0.000000 1.000000 0.000000
      length 4.885285
      axis 0.0 0.0 0.0 xyz
   end
   begin
      id 2
      name LeftUpLeg_dum
      direction 1.000000 0.000000 0.000000
      length 2.672193
      axis 0.0 0.0 0.0 xyz
   end
   begin
      id 3
      name RightUpLeg_dum
      direction -1.000000 0.000000 0.000000
      length 2.672193
      axis 0.0 0.0 0.0 xyz
   end
   begin
      id 4
      name Spine
      direction 0.000000 1.000000 0.000000
      length 0.000000
      axis 0.0 0.0 0.0 xyz
      dof rx ry rz
   end
   begin
      id 5
      name Spine_dum1
      direction 0.000000 1.000000 0.000000
      length 16.494159
      axis 0.0 0.0 0.0 xyz
   end
   begin
      id 6
      name Spine_dum2
      direction 0.000000 1.000000 0.000000
      length 10.663448
      axis 0.0 0.0 0.0 xyz
   end
   begin
      id 7
      name Spine_dum3
      direction 0.000000 1.000000 0.000000
      length 10.663448
      axis 0.0 0.0 0.0 xyz
   end
   begin
      id 8
      name Head
      direction 0.000000 1.000000 0.000000
      length 4.527550
      axis 0.0 0.0 0.0 xyz
      dof rx ry rz
   end
   begin
      id 9
      name LeftShoulder
      direction 1.000000 0.000000 0.000000
      length 7.531907
      axis 0.0 0.0 -90.0 xyz
      dof rx ry rz
   end
   begin
      id 10
      name LeftArm
      direction 1.000000 0.000000 0.000000
      length 10.229199
      axis 0.0 0.0 -90.0 xyz
      dof rx ry rz
   end
   begin
      id 11
      name LeftForeArm
      direction 1.000000 0.000000 0.000000
      length 8.673495
      axis 0.0 0.0 -90.0 xyz
      dof ry rz rx
   end
   begin
      id 12
      name LeftHand
      direction 0.000000 0.000000 0.000000
      length 0.000000
      axis 0.0 0.0 -90.0 xyz
      dof rx ry rz
   end
   begin
      id 13
      name LeftHand_dum1
      direction 0.000000 0.000000 0.000000
      length 0.000000
      axis 0.0 0.0 -90.0 xyz
   end
   begin
      id 14
      name LeftHand_dum2
      direction 1.000000 0.000000 0.000000
      length 3.937000
      axis 0.0 0.0 -90.0 xyz
   end
   begin
      id 15
      name LeftHandThumb1
      direction 0.000000 0.000000 1.000000
      length 3.937000
      axis 0.0 0.0 -90.0 xyz
      dof rx rz ry
   end
   begin
      id 16
      name RightShoulder
      direction -1.000000 0.000000 0.000000
      length 7.531907
      axis 0.0 0.0 90.0 xyz
      dof rx ry rz
   end
   begin
      id 17
      name RightArm
      direction -1.000000 0.000000 0.000000
      length 10.229199
      axis 0.0 0.0 90.0 xyz
      dof rx ry rz
   end
   begin
      id 18
      name RightForeArm
      direction -1.000000 0.000000 0.000000
      length 8.673495
      axis 0.0 0.0 90.0 xyz
      dof ry rz rx
   end
   begin
      id 19
      name RightHand
      direction 0.000000 0.000000 0.000000
      length 0.000000
      axis 0.0 0.0 90.0 xyz
      dof rx ry rz
   end
   begin
      id 20
      name RightHand_dum1
      direction 0.000000 0.000000 0.000000
      length 0.000000
      axis 0.0 0.0 90.0 xyz
   end
   begin
      id 21
      name RightHand_dum2
      direction -1.000000 0.000000 0.000000
      length 3.937000
      axis 0.0 0.0 90.0 xyz
   end
   begin
      id 22
      name RightHandThumb1
      direction 0.000000 0.000000 1.000000
      length 3.937000
      axis 0.0 0.0 90.0 xyz
      dof rx rz ry
   end
   begin
      id 23
      name LeftUpLeg
      direction 0.000000 -1.000000 0.000000
      length 16.263388
      axis 0.0 0.0 0.0 xyz
      dof rx ry rz
   end
   begin
      id 24
      name LeftLeg
      direction 0.000000 -1.000000 0.000000
      length 14.328163
      axis 0.0 0.0 0.0 xyz
      dof rx ry rz
   end
   begin
      id 25
      name LeftFoot
      direction 0.000000 -0.258819 0.965926
      length 5.031290
      axis 15.0 0.0 0.0 xyz
      dof rx ry rz
   end
   begin
      id 26
      name LeftToeBase
      direction 0.000000 0.000000 1.000000
      length 2.952750
      axis 0.0 0.0 0.0 xyz
      dof rx ry rz
   end
   begin
      id 27
      name RightUpLeg
      direction 0.000000 -1.000000 0.000000
      length 16.263388
      axis 0.0 0.0 0.0 xyz
      dof rx ry rz
   end
   begin
      id 28
      name RightLeg
      direction 0.000000 -1.000000 0.000000
      length 14.328163
      axis 0.0 0.0 0.0 xyz
      dof rx ry rz
   end
   begin
      id 29
      name RightFoot
      direction 0.000000 -0.258819 0.965926
      length 5.031290
      axis 15.0 0.0 0.0 xyz
      dof rx ry rz
   end
   begin
      id 30
      name RightToeBase
      direction 0.000000 0.000000 1.000000
      length 2.952750
      axis 0.0 0.0 0.0 xyz
      dof rx ry rz
   end
:hierarchy
   begin
      root Spine_dum LeftUpLeg_dum RightUpLeg_dum
      Spine_dum Spine
      LeftUpLeg_dum LeftUpLeg
      RightUpLeg_dum RightUpLeg
      Spine Spine_dum1 Spine_dum2 Spine_dum3
      Spine_dum1 Head
      Spine_dum2 LeftShoulder
      Spine_dum3 RightShoulder
      LeftShoulder LeftArm
      LeftArm LeftForeArm
      LeftForeArm LeftHand
      LeftHand LeftHand_dum1 LeftHand_dum2
      LeftHand_dum1 LeftHandThumb1
      RightShoulder RightArm
      RightArm RightForeArm
      RightForeArm RightHand
      RightHand RightHand_dum1 RightHand_dum2
      RightHand_dum1 RightHandThumb1
      LeftUpLeg LeftLeg
      LeftLeg LeftFoot
      LeftFoot LeftToeBase
      RightUpLeg RightLeg
      RightLeg RightFoot
      RightFoot RightToeBase
   end

# File created by Blade
# Date/Time:  Tue Apr 07 20:17:56 2015
# Frame Rate: 120.000 fps
#------------------------------------------------------
:FULLY-SPECIFIED
:DEGREES
120
root 2.322660 32.726103 -6.766684 11.722458 2.959419 -0.285832
Spine -15.041419 -6.050354 -1.132723
Head 15.275142 -1.419585 0.362154
LeftShoulder -21.829375 43.175759 15.963252
LeftArm 56.680724 -50.261643 -64.477144
LeftForeArm 1.946978 0.000000 -3.019874
LeftHand 5.131124 -0.000000 -1.521507
LeftHandThumb1 -26.253704 0.000000 33.147579
RightShoulder -7.951980 1.892222 -28.352802
RightArm 11.998404 15.832191 43.533215
RightForeArm -7.952640 0.000000 0.029111
RightHand 3.545910 0.000000 5.504600
RightHandThumb1 -24.326973 -0.000000 -32.862282
LeftUpLeg -4.564265 -2.134524 0.550428
LeftLeg -3.000268 -0.000000 0.000000
LeftFoot -6.777014 7.204538 -16.209024
LeftToeBase -4.756429 -0.000000 0.000000
RightUpLeg -5.375132 -2.733627 1.236283
RightLeg -2.382500 -0.000000 0.000000
RightFoot -8.620702 -7.079058 5.823190
RightToeBase 2.879653 -0.000000 -0.000000
121
root 2.321304 32.725679 -6.751617 11.750808 2.926271 -0.309430
Spine -15.092474 -6.027409 -1.118314
Head 15.232975 -1.422320 0.386567
LeftShoulder -21.814680 43.240338 15.939953
LeftArm 56.402579 -50.064803 -64.176861
LeftForeArm 1.826101 -0.000000 -3.021949
LeftHand 5.037508 -0.000000 -1.622709
LeftHandThumb1 -26.253704 0.000000 33.147579
RightShoulder -7.903686 1.835753 -28.290135
RightArm 11.989133 15.775938 43.558437
RightForeArm -7.789127 0.000000 0.062932
RightHand 3.373794 -0.000000 5.596951
RightHandThumb1 -24.326973 -0.000000 -32.862282
LeftUpLeg -4.555205 -2.107181 0.568768
LeftLeg -3.019082 -0.000000 0.000000
LeftFoot -6.791587 7.226035 -16.183474
LeftToeBase -4.737839 -0.000000 0.000000
RightUpLeg -5.354631 -2.754104 1.260865
RightLeg -2.436657 -0.000000 0.000000
RightFoot -8.587575 -7.009854 5.842706
RightToeBase 2.865073 -0.000000 -0.000000
122
root 2.320543 32.725549 -6.736584 11.780488 2.897410 -0.319081
Spine -15.140563 -5.997461 -1.128627
Head 15.190532 -1.427021 0.436235
LeftShoulder -21.793217 43.316256 15.936201
LeftArm 56.214610 -49.920810 -63.983058
LeftForeArm 1.739490 -0.000000 -2.989582
LeftHand 5.078511 -0.000000 -1.579305
LeftHandThumb1 -26.253704 0.000000 33.147579
RightShoulder -7.882914 1.779614 -28.249366
RightArm 11.982037 15.761620 43.615437
RightForeArm -7.685419 -0.000000 0.062371
RightHand 3.553479 -0.000000 5.384770
RightHandThumb1 -24.326973 -0.000000 -32.862282
LeftUpLeg -4.546544 -2.113441 0.576987
LeftLeg -3.038499 -0.000000 0.000000
LeftFoot -6.801942 7.278681 -16.189755
LeftToeBase -4.779958 -0.000000 0.000000
RightUpLeg -5.339538 -2.776073 1.268442
RightLeg -2.480571 -0.000000 0.000000
RightFoot -8.551803 -6.943069 5.843791
RightToeBase 2.832164 -0.000000 -0.000000
123
root 2.319318 32.725561 -6.721218 11.801148 2.856999 -0.327015
Spine -15.178359 -5.956649 -1.144185
Head 15.150357 -1.434257 0.485359
LeftShoulder -21.789325 43.416154 15.909998
LeftArm 56.065141 -49.819625 -63.826884
LeftForeArm 1.592311 -0.000000 -2.878971
LeftHand 5.041833 -0.000000 -1.456376
LeftHandThumb1 -26.253704 0.000000 33.147579
RightShoulder -7.853921 1.731929 -28.192957
RightArm 11.965208 15.770060 43.644364
RightForeArm -7.633109 -0.000000 0.074108
RightHand 3.526918 -0.000000 5.282112
RightHandThumb1 -24.326973 -0.000000 -32.862282
LeftUpLeg -4.525382 -2.098300 0.582188
LeftLeg -3.062215 -0.000000 0.000000
LeftFoot -6.800501 7.301131 -16.192264
LeftToeBase -4.750498 -0.000000 0.000000
RightUpLeg -5.319038 -2.780773 1.274849
RightLeg -2.516966 -0.000000 0.000000
RightFoot -8.531578 -6.896661 5.861685
RightToeBase 2.853810 -0.000000 -0.000000
124
root 2.318223 32.725242 -6.705343 11.823466 2.819841 -0.340800
Spine -15.218279 -5.912673 -1.155185
Head 15.112231 -1.459870 0.532189
LeftShoulder -21.787763 43.472832 15.893711
LeftArm 55.952186 -49.762900 -63.726077
LeftForeArm 1.468753 0.000000 -2.729737
LeftHand 5.123366 -0.000000 -1.294587
LeftHandThumb1 -26.253704 0.000000 33.147579
RightShoulder -7.836695 1.643110 -28.155891
RightArm 11.968804 15.850482 43.711772
RightForeArm -7.582425 -0.000000 0.141881
RightHand 3.624607 -0.000000 5.385212
RightHandThumb1 -24.326973 -0.000000 -32.862282
LeftUpLeg -4.506575 -2.072263 0.591823
LeftLeg -3.085219 -0.000000 0.000000
LeftFoot -6.802046 7.320863 -16.180097
LeftToeBase -4.775031 -0.000000 0.000000
RightUpLeg -5.301298 -2.786655 1.288321
RightLeg -2.552483 -0.000000 0.000000
RightFoot -8.497808 -6.854062 5.862028
RightToeBase 2.782806 -0.000000 -0.000000
125
root 2.317390 32.725200 -6.689557 11.852540 2.799255 -0.346377
Spine -15.266041 -5.884736 -1.167491
Head 15.077240 -1.480720 0.571439
LeftShoulder -21.753593 43.463416 15.904537
LeftArm 55.807836 -49.756078 -63.629039
LeftForeArm 1.439067 -0.000000 -2.544995
LeftHand 5.188156 -0.000000 -1.220171
LeftHandThumb1 -26.253704 0.000000 33.147579
RightShoulder -7.814228 1.618299 -28.123184
RightArm 11.911114 15.876652 43.731243
RightForeArm -7.630594 -0.000000 0.232486
RightHand 3.605809 -0.000000 5.199550
RightHandThumb1 -24.326973 -0.000000 -32.862282
LeftUpLeg -4.493096 -2.091751 0.600833
LeftLeg -3.112538 -0.000000 0.000000
LeftFoot -6.807621 7.356970 -16.192886
LeftToeBase -4.778632 -0.000000 0.000000
RightUpLeg -5.288689 -2.817643 1.298617
RightLeg -2.587563 -0.000000 0.000000
RightFoot -8.463712 -6.809990 5.845745
RightToeBase 2.740148 -0.000000 -0.000000
126
root 2.316510 32.725385 -6.673271 11.888352 2.767685 -0.348676
Spine -15.321438 -5.836651 -1.193133
Head 15.048932 -1.524877 0.619244
LeftShoulder -21.723347 43.474689 15.919799
LeftArm 55.760844 -49.800379 -63.628504
LeftForeArm 1.469584 0.000000 -2.343690
LeftHand 5.234043 0.000000 -1.120816
LeftHandThumb1 -26.253704 0.000000 33.147579
RightShoulder -7.816983 1.544432 -28.078816
RightArm 11.906510 15.853760 43.752177
RightForeArm -7.603685 -0.000000 0.321230
RightHand 3.704381 0.000000 5.065050
RightHandThumb1 -24.326973 -0.000000 -32.862282
LeftUpLeg -4.487282 -2.079781 0.604229
LeftLeg -3.136936 -0.000000 0.000000
LeftFoot -6.797639 7.371453 -16.203128
LeftToeBase -4.789578 -0.000000 0.000000
RightUpLeg -5.284187 -2.824626 1.303345
RightLeg -2.621402 -0.000000 0.000000
RightFoot -8.433401 -6.775850 5.834796
RightToeBase 2.753719 -0.000000 -0.000000
127
root 2.315699 32.726123 -6.656451 11.923253 2.744777 -0.356170
Spine -15.377518 -5.797053 -1.212022
Head 15.022445 -1.579675 0.670317
LeftShoulder -21.717876 43.485509 15.915019
LeftArm 55.760610 -49.851865 -63.625157
LeftForeArm 1.423701 -0.000000 -2.152514
LeftHand 5.257829 -0.000000 -0.984895
LeftHandThumb1 -26.253704 0.000000 33.147579
RightShoulder -7.824316 1.506823 -28.050405
RightArm 11.882643 15.822500 43.767101
RightForeArm -7.629668 -0.000000 0.409988
RightHand 3.660578 -0.000000 4.918913
RightHandThumb1 -24.326973 -0.000000 -32.862282
LeftUpLeg -4.482306 -2.063279 0.609981
LeftLeg -3.155468 -0.000000 0.000000
LeftFoot -6.782002 7.382074 -16.205777
LeftToeBase -4.815465 -0.000000 0.000000
RightUpLeg -5.283462 -2.829961 1.312757
RightLeg -2.641065 -0.000000 0.000000
RightFoot -8.406958 -6.757215 5.824465
RightToeBase 2.708128 -0.000000 -0.000000
128
root 2.315339 32.726981 -6.639253 11.952361 2.728664 -0.341293
Spine -15.429328 -5.771316 -1.257037
Head 15.013431 -1.589033 0.725677
LeftShoulder -21.703280 43.469658 15.924701
LeftArm 55.729776 -49.905689 -63.565634
LeftForeArm 1.377791 -0.000000 -1.987261
LeftHand 5.312038 -0.000000 -0.929184
LeftHandThumb1 -26.253704 0.000000 33.147579
RightShoulder -7.852216 1.470258 -28.013242
RightArm 11.899316 15.743160 43.768711
RightForeArm -7.646001 0.000000 0.475487
RightHand 3.662622 -0.000000 4.906348
RightHandThumb1 -24.326973 -0.000000 -32.862282
LeftUpLeg -4.470842 -2.067819 0.599026
LeftLeg -3.172317 -0.000000 0.000000
LeftFoot -6.756425 7.384334 -16.224212
LeftToeBase -4.857645 -0.000000 0.000000
RightUpLeg -5.275931 -2.853034 1.303691
RightLeg -2.658901 -0.000000 0.000000
RightFoot -8.400966 -6.741069 5.827326
RightToeBase 2.700280 -0.000000 -0.000000
129
root 2.315811 32.728166 -6.623054 11.987855 2.721227 -0.341140
Spine -15.491474 -5.751509 -1.274609
Head 15.018259 -1.632692 0.756152
LeftShoulder -21.676468 43.434176 15.955888
LeftArm 55.664053 -49.939249 -63.470271
LeftForeArm 1.370585 -0.000000 -1.837257
LeftHand 5.343355 -0.000000 -0.762022
LeftHandThumb1 -26.253704 0.000000 33.147579
RightShoulder -7.862618 1.429923 -28.005979
RightArm 11.906240 15.689658 43.788853
RightForeArm -7.619623 -0.000000 0.530958
RightHand 3.746562 -0.000000 4.937835
RightHandThumb1 -24.326973 -0.000000 -32.862282
LeftUpLeg -4.473443 -2.063353 0.598828
LeftLeg -3.184297 -0.000000 0.000000
LeftFoot -6.743775 7.387372 -16.217488
LeftToeBase -4.795858 -0.000000 0.000000
RightUpLeg -5.277782 -2.882652 1.309861
RightLeg -2.674459 -0.000000 0.000000
RightFoot -8.364330 -6.723586 5.797532
RightToeBase 2.651899 -0.000000 -0.000000
